<?xml version="1.0" encoding="UTF-8" standalone="no"?>
<!-- Created with Inkscape (http://www.inkscape.org/) -->

<svg
   version="1.1"
   id="svg1"
   width="593.22668"
   height="421.05334"
   viewBox="0 0 593.22668 421.05334"
   sodipodi:docname="CP_shield.svg"
   inkscape:version="1.3 (0e150ed, 2023-07-21)"
   xmlns:inkscape="http://www.inkscape.org/namespaces/inkscape"
   xmlns:sodipodi="http://sodipodi.sourceforge.net/DTD/sodipodi-0.dtd"
   xmlns="http://www.w3.org/2000/svg"
   xmlns:svg="http://www.w3.org/2000/svg">
  <defs
     id="defs1" />
  <sodipodi:namedview
     id="namedview1"
     pagecolor="#ffffff"
     bordercolor="#000000"
     borderopacity="0.25"
     inkscape:showpageshadow="2"
     inkscape:pageopacity="0.0"
     inkscape:pagecheckerboard="0"
     inkscape:deskcolor="#d1d1d1"
     inkscape:zoom="7.0439268"
     inkscape:cx="388.34873"
     inkscape:cy="167.80413"
     inkscape:window-width="1512"
     inkscape:window-height="847"
     inkscape:window-x="0"
     inkscape:window-y="38"
     inkscape:window-maximized="0"
     inkscape:current-layer="svg1">
    <inkscape:page
       x="0"
       y="0"
       inkscape:label="1"
       id="page1"
       width="593.22668"
       height="421.05334"
       margin="0"
       bleed="0" />
  </sodipodi:namedview>
  <path
     id="path15-2"
     d="m 362.12666,56.5533 c -0.548,-0.0333 -1.09733,-0.0653 -1.64933,-0.0973 -12.02,-0.69467 -24.97867,-1.22267 -38.17467,-1.396 -0.33333,-0.004 -0.668,-0.008 -1.00266,-0.012 -0.33467,-0.005 -0.66934,-0.008 -1.00267,-0.012 C 317.932,55.012 315.56267,55 313.18667,55 c -1.47467,0 -2.948,0.004 -4.424,0.0133 -0.32934,0.003 -0.66,0.005 -0.98934,0.007 -0.33066,0.004 -0.65866,0.007 -0.98933,0.009 -11.40533,0.10667 -22.78133,0.484 -33.63733,1.01333 -0.33467,0.0173 -0.66667,0.0333 -0.99867,0.0507 -0.33333,0.016 -0.66667,0.0333 -1,0.0493 -4.068,0.20667 -8.05867,0.43467 -11.944,0.676 -0.34133,0.0227 -0.684,0.0427 -1.024,0.0653 -0.34267,0.0213 -0.68267,0.0427 -1.02267,0.064 C 224.01733,59.07326 199,62.17459 199,62.17459 v 29.700004 l 0.34933,23.445326 0.016,1.11334 0.001,0.0933 0.0147,1.02 0.176,11.81867 0.0173,1.05466 0.0147,1.05467 0.86534,58.21467 c -0.17067,20.33999 4.85866,38.69466 12.84266,54.96799 22.972,46.832 70.40934,76.42934 88.80934,86.556 l 7.85733,4.04133 7.46933,-4.04133 c 19.14267,-10.21466 68.64533,-40.15466 92.436,-87.504 8.04,-16.00266 13.14533,-33.99333 13.14533,-53.88399 l 1.07467,-73.304 0.4,-27.281336 V 62.17456 c 0,0 -26.908,-3.512 -62.36267,-5.62133"
     style="display:inline;fill:#0b3820;fill-opacity:1;fill-rule:nonzero;stroke:none;stroke-width:0.133333"
     inkscape:label="shield"
     sodipodi:nodetypes="cccccsccccccccccccccccccccccccccccc"
     sodipodi:insensitive="true" />
  <g
     id="g2"
     inkscape:label="text group"
     style="display:inline"
     sodipodi:insensitive="true">
    <path
       d="m 400.13551,80.212299 c 1.49867,-1.34134 3.56933,-1.944 5.82667,-1.68667 2.62,0.29067 4.36266,1.69733 5.36266,2.82533 l 0.13334,0.152 -2.268,2.50534 -0.16934,-0.17334 c -0.82666,-0.85733 -1.65066,-1.45866 -2.98533,-1.608 -1.06533,-0.116 -2.01067,0.15067 -2.71733,0.784 -0.90667,0.812 -1.38667,2.14134 -1.38534,3.84534 0,3.388 1.54,5.35066 4.45334,5.67733 0.58,0.0653 1.148,-0.0133 1.5,-0.19867 v -2.53333 c -0.848,-0.0973 -1.69334,-0.192 -2.54,-0.28533 l -0.20134,-0.0227 v -3.51867 l 0.252,0.0293 c 2.02134,0.224 4.04134,0.45466 6.06134,0.69466 l 0.20133,0.024 v 7.95334 l -0.0787,0.0667 c -1.10133,0.952 -2.80933,1.492 -4.62,1.492 -0.33466,0 -0.67333,-0.0187 -1.012,-0.056 -5.04933,-0.56533 -8.308,-4.332 -8.304,-9.596 0,-2.71066 0.86,-4.91333 2.49067,-6.37066 m -19.32133,-3.81467 0.244,0.02 c 1.28,0.10533 2.56133,0.21333 3.84266,0.32533 l 0.12667,0.009 0.0573,0.11333 c 1.44,2.876 2.88134,5.75467 4.32267,8.63733 l 1.18667,2.752 v -0.009 c -0.168,-1.57467 -0.35867,-3.35867 -0.356,-4.91467 v -6.11066 l 0.248,0.0227 c 1.18933,0.11067 2.37866,0.22534 3.56933,0.34134 l 0.204,0.02 v 17.044 l -0.24933,-0.0227 c -1.27867,-0.12533 -2.55734,-0.24667 -3.83734,-0.36533 l -0.124,-0.012 -0.056,-0.11334 c -1.44533,-2.9 -2.884,-5.784 -4.32266,-8.66266 l -1.19334,-2.74 c 0.008,0.064 0.0133,0.128 0.0213,0.19066 0.16,1.50667 0.34,3.21334 0.34,4.724 v 6.13467 l -0.24534,-0.0213 c -1.19066,-0.104 -2.38,-0.20267 -3.572,-0.30134 l -0.20666,-0.016 z m -9.352,-0.712 0.244,0.0173 c 1.25066,0.0893 2.50266,0.18134 3.74933,0.27467 l 0.21067,0.016 v 17.044 l -0.24267,-0.0187 c -1.24933,-0.0933 -2.49867,-0.18533 -3.74933,-0.27333 l -0.212,-0.0147 z m -16.576,0.75733 c 1.36133,-1.28533 3.21066,-1.89333 5.39066,-1.776 4.71067,0.27067 7.75334,3.88934 7.75067,9.22 -0.001,2.86267 -0.83733,5.164 -2.41867,6.656 -1.248,1.17734 -2.90933,1.79334 -4.828,1.79334 -0.17466,0 -0.35066,-0.005 -0.52933,-0.016 -4.71067,-0.26934 -7.75467,-3.91734 -7.75467,-9.29734 0.001,-2.83066 0.82934,-5.10666 2.38934,-6.58 m -18.70267,-2.50533 0.23333,0.007 c 1.56534,0.0453 3.132,0.0947 4.69867,0.148 5.51867,0.19333 8.55867,3.31066 8.55733,8.77866 0,2.76 -0.74666,4.88 -2.22,6.304 -1.36,1.31067 -3.26533,1.976 -5.67066,1.976 -0.15467,0 -0.31334,-0.004 -0.47334,-0.009 -1.636,-0.056 -3.27066,-0.10667 -4.90533,-0.15467 l -0.22,-0.007 z m -22.44933,-0.348 c 1.33867,0.004 2.67733,0.009 4.01733,0.0187 h 0.15333 l 0.0573,0.14266 c 0.496,1.27467 0.99066,2.55067 1.484,3.82534 0.28266,0.792 0.55866,1.53866 0.844,2.308 l 0.35066,0.95066 c 0.17734,-0.46933 0.356,-0.92266 0.53067,-1.37466 0.24,-0.612 0.47733,-1.21867 0.70933,-1.85067 l 1.54267,-3.94267 0.156,0.003 c 1.30933,0.0173 2.61733,0.0387 3.92533,0.0627 l 0.352,0.005 -0.15066,0.31867 c -1.66,3.512 -3.32134,7.028 -4.98534,10.54933 v 6.096 l -0.228,-0.004 c -1.252,-0.016 -2.50133,-0.0293 -3.75466,-0.0387 l -0.22534,-0.003 v -6.09067 c -1.66133,-3.55733 -3.32266,-7.10667 -4.98533,-10.652 l -0.15066,-0.324 z m -14.52133,0.0933 0.224,-0.003 c 1.89733,-0.0293 3.79066,-0.0507 5.68933,-0.0653 2.51067,-0.0133 4.26133,0.46667 5.29467,1.496 0.70533,0.69867 1.06266,1.64667 1.06266,2.81867 0,1.512 -0.78666,2.948 -1.92,3.6 1.74667,0.61333 2.73734,2.044 2.73734,3.988 -10e-4,3.18533 -2.504,5.10533 -6.69734,5.136 -2.052,0.0147 -4.10666,0.0373 -6.16133,0.068 l -0.22933,0.004 z m -24.59734,0.724 0.216,-0.0107 c 1.284,-0.0547 2.56667,-0.10934 3.85067,-0.15867 l 0.14133,-0.005 0.0667,0.12533 c 1.444,2.69333 2.88933,5.39067 4.33467,8.092 l 1.20266,2.62933 c -0.17066,-1.58 -0.36533,-3.37066 -0.36666,-4.95466 v -6.08 l 0.22133,-0.008 c 1.19333,-0.0387 2.384,-0.0747 3.57867,-0.10934 l 0.23333,-0.004 v 17.04134 l -0.22133,0.007 c -1.28134,0.036 -2.564,0.0747 -3.84667,0.11734 l -0.14,0.004 -0.068,-0.124 c -1.444,-2.708 -2.888,-5.41467 -4.33333,-8.11734 l -1.208,-2.61866 c 0.009,0.0907 0.02,0.18266 0.028,0.276 0.16133,1.48133 0.34133,3.16133 0.34266,4.66933 v 6.104 l -0.21733,0.009 c -1.19333,0.0467 -2.38533,0.096 -3.57867,0.148 l -0.236,0.009 z m -16.428,0.88267 0.21334,-0.0133 c 1.99066,-0.12667 3.984,-0.24667 5.97866,-0.35867 2.38667,-0.13333 4.17334,0.33333 5.28667,1.388 0.904,0.85333 1.36,2.088 1.36,3.66933 -10e-4,2.276 -1.028,4.01734 -2.86667,5.03334 1.212,2.076 2.42267,4.156 3.63467,6.23866 l 0.188,0.32267 -0.37333,0.0187 c -1.39734,0.0653 -2.79867,0.136 -4.19734,0.20933 l -0.14266,0.008 -0.0693,-0.12533 c -1.03333,-1.892 -2.06666,-3.784 -3.1,-5.672 -0.56933,0.032 -1.13866,0.0653 -1.70666,0.0973 v 5.97067 l -0.21334,0.0133 c -1.252,0.0733 -2.50133,0.14933 -3.75066,0.22667 l -0.24134,0.0173 z m -18.144,18.07867 c 1.73334,-5.67734 3.47067,-11.34934 5.20534,-17.01467 l 0.0453,-0.148 0.15467,-0.012 c 1.49466,-0.11733 2.992,-0.23067 4.488,-0.33867 l 0.17733,-0.0147 0.056,0.17066 5.296,16.5 -0.28933,0.0187 c -1.32134,0.088 -2.644,0.18133 -3.96667,0.27467 l -0.18933,0.0147 -1.02,-3.87866 c -1.568,0.11466 -3.13734,0.23466 -4.704,0.35733 -0.32934,1.292 -0.65734,2.584 -0.98534,3.87733 l -0.0387,0.15734 -0.16267,0.012 c -1.27733,0.104 -2.55467,0.208 -3.83067,0.31733 l -0.33466,0.028 z m -13.49466,-15.47467 0.20266,-0.0213 c 3.46267,-0.34934 6.956,-0.68 10.38134,-0.984 l 0.24666,-0.0213 v 3.60134 l -0.20666,0.0173 c -2.14267,0.19067 -4.28534,0.388 -6.42667,0.59333 v 2.876 c 1.79867,-0.17333 3.59867,-0.34 5.39867,-0.50133 l 0.24666,-0.0227 v 3.60134 l -0.20533,0.0187 c -1.81467,0.16267 -3.628,0.33067 -5.44,0.50667 v 3.36533 c 2.212,-0.212 4.42533,-0.41733 6.64,-0.61333 l 0.248,-0.0213 v 3.60133 l -0.208,0.0173 c -3.484,0.30667 -7.06,0.64667 -10.628,1.00667 l -0.24933,0.024 z m -14.49467,1.59067 0.2,-0.0227 c 1.24533,-0.148 2.49333,-0.292 3.73867,-0.43467 l 0.25466,-0.028 v 13.444 c 2.09067,-0.23866 4.18267,-0.468 6.27867,-0.68933 l 0.24933,-0.028 v 3.60267 l -0.20266,0.0227 c -3.432,0.36267 -6.88534,0.75067 -10.26534,1.15067 l -0.25333,0.0293 z"
       style="display:inline;fill:#ffffff;fill-opacity:1;fill-rule:nonzero;stroke:none;stroke-width:0.133333"
       id="path1"
       inkscape:label="text"
       sodipodi:nodetypes="ccccccccccccccccscccsccccccccccccccccccccccccsccccccccccccccccccsccccccccscccccccccccccccccscccccccccccccsccccccccccccccccccccccccccccccccccccccccccccccccccccscccccccccccccccccccccccccccccccccccccccccccccccccc" />
    <path
       id="path10"
       d="m 307.37979,78.485324 c 0,-0.452 -0.11333,-0.78533 -0.35066,-1.02133 -0.34667,-0.34267 -0.984,-0.50934 -1.952,-0.50934 h -0.0707 l -1.55867,0.0147 v 3.29733 l 1.528,-0.0147 c 1.596,-0.0133 2.404,-0.608 2.404,-1.76667"
       style="display:inline;fill:#0b3820;fill-opacity:1;fill-rule:nonzero;stroke:none;stroke-width:0.133333"
       inkscape:label="B hole" />
    <path
       id="path11"
       d="m 266.91076,80.166251 c 0,-0.59466 -0.14666,-1.02266 -0.44933,-1.308 -0.42133,-0.39866 -1.16667,-0.55466 -2.344,-0.48666 l -1.70533,0.0973 v 4.20933 l 1.68,-0.0973 c 1.87066,-0.10667 2.81866,-0.91867 2.81866,-2.41467"
       style="display:inline;fill:#0b3820;fill-opacity:1;fill-rule:nonzero;stroke:none;stroke-width:0.133333"
       inkscape:label="R hole" />
    <path
       id="path12"
       d="m 308.19846,85.273324 c 10e-4,-0.51067 -0.13467,-0.89333 -0.416,-1.172 -0.42667,-0.424 -1.20667,-0.63067 -2.38133,-0.63067 h -0.08 l -1.87334,0.0173 v 3.82933 l 1.87067,-0.0173 c 1.93867,-0.0147 2.88,-0.67734 2.88,-2.02667"
       style="display:inline;fill:#0b3820;fill-opacity:1;fill-rule:nonzero;stroke:none;stroke-width:0.133333"
       inkscape:label="B hole 2" />
    <path
       id="path13"
       d="m 360.29307,88.624671 c 0.796,0.056 1.51467,-0.19734 2.08,-0.73067 0.88534,-0.83733 1.37334,-2.348 1.372,-4.256 0,-3.18267 -1.3,-5.15867 -3.47733,-5.28267 -0.0693,-0.005 -0.13867,-0.007 -0.20533,-0.007 -0.75734,0 -1.40134,0.24666 -1.92134,0.73733 -0.864,0.816 -1.324,2.244 -1.32666,4.12933 0.003,3.21334 1.336,5.28667 3.47866,5.40934"
       style="display:inline;fill:#0b3820;fill-opacity:1;fill-rule:nonzero;stroke:none;stroke-width:0.133333"
       inkscape:label="O hole" />
    <path
       id="path14"
       d="m 344.13875,86.637333 c 0.828,-0.8 1.248,-2.13333 1.24667,-3.95867 0.005,-3.40933 -1.428,-5.04666 -4.5,-5.15333 l -0.47867,-0.0147 v 10.09467 l 0.49334,0.016 c 1.436,0.052 2.50133,-0.272 3.23866,-0.984"
       style="display:inline;fill:#0b3820;fill-opacity:1;fill-rule:nonzero;stroke:none;stroke-width:0.133333"
       inkscape:label="D hole" />
    <path
       id="path16"
       d="m 248.84,84.401292 c -0.28933,-1.02267 -0.57733,-2.18 -0.856,-3.29867 -0.10266,-0.42 -0.20666,-0.83866 -0.31066,-1.248 -0.356,1.568 -0.74934,3.28134 -1.14667,4.756 -0.10667,0.41867 -0.21333,0.83867 -0.32,1.25734 0.98667,-0.0773 1.97333,-0.15067 2.96133,-0.224 l -0.328,-1.24267"
       style="display:inline;fill:#0b3820;fill-opacity:1;fill-rule:nonzero;stroke:none;stroke-width:0.133333"
       inkscape:label="A hole" />
  </g>
  <path
     d="m 349.33157,162.18152 c 0.70511,-0.20902 9.46678,-3.36001 32.8,-11.888 l -0.004,0.001 c 0.001,0 0.005,-0.001 0.005,-0.001 l -19.76933,12.87334 h -0.007 -0.001 l -13.03333,-0.976 c 0.004,-0.003 0.0173,-0.007 0.024,-0.009 z M 387.245,139.65091 c -0.65076,0 -54.87853,20.33965 -56.78543,20.37495 -1.23285,-0.28586 -20.45617,-4.73465 -33.056,-7.64666 -3.99847,2.09442 -4.5634,2.3905 -15.408,8.076 -30.75289,-0.15907 12.35634,-0.0378 -14.56666,-0.1211 -24.11467,-0.0787 -52.03467,1.52667 -56.792,1.83334 l 0.99866,-26.27867 56.75467,20.82933 c 0.20335,-0.6153 0.39385,-1.14368 0.67733,-1.84933 0.21067,-0.52267 0.43867,-1.04267 0.68,-1.556 0.11298,-0.24117 0.46684,-0.98894 0.89067,-1.75467 l -58.468,-29.72666 0.24933,-6.56267 c 6.93467,-0.728 16.27734,-1.66933 27.312,-2.58533 l 35.52134,32.548 c 0.53089,-0.56566 1.05102,-1.06422 1.396,-1.388 0.41333,-0.38267 0.84,-0.756 1.276,-1.11867 0.54755,-0.45194 1.04416,-0.83577 1.55333,-1.20933 L 255.95291,111.4581 c 5.556,-0.37466 11.38666,-0.72266 17.42533,-1.02133 l 12.95067,27.29733 c 0.58928,-0.23416 1.11962,-0.4288 1.852,-0.66666 0.54,-0.176 1.08133,-0.33334 1.62666,-0.47734 0.26223,-0.0694 1.05167,-0.27517 1.91734,-0.444 l -6.08267,-26.23466 c 4.69484,-0.17251 10.60337,-0.33401 16.24133,-0.42267 l -2.35733,26.13733 c 0.54132,0.0309 1.03889,0.0705 1.96,0.17996 0.56133,0.0707 1.11867,0.156 1.672,0.256 0.66485,0.12095 1.14129,0.21711 1.92533,0.41067 l 8.03467,-27.07733 h 0.0787 c 5.50533,0 10.99733,0.068 16.42666,0.192 l -17.25066,29.696 c 0.59021,0.31549 1.13009,0.63043 1.70266,0.98933 0.476,0.29867 0.94534,0.60933 1.40667,0.93333 0.51481,0.35081 1.19117,0.88448 1.57337,1.18504 9.04299,-10.83817 18.22914,-21.56718 27.36133,-32.33334 10.62,0.432 20.8,1.036 30.12534,1.70534 l -52.07734,36.25866 c 0.19467,0.26267 0.38667,0.52934 0.57334,0.8 0.086,0.12253 0.56248,0.8055 0.992,1.52 0.1784,0.29051 0.48416,0.79256 0.91333,1.59867 0.15467,0.292 0.30533,0.584 0.44933,0.87733 l 73.284,-39.04933 c 4.2414,0.40236 8.85575,0.86804 12.36134,1.244 l 1.39619,45.57001"
     style="display:inline;fill:#ffffff;fill-opacity:1;fill-rule:nonzero;stroke:none;stroke-width:0.133333"
     id="path1-1"
     inkscape:label="sun"
     sodipodi:nodetypes="cccccccccccccccccccccccccccccccccccccccccsccccccccccccccc" />
  <path
     d="m 412.17022,197.97778 c -0.32133,3.84267 -0.98266,8.90667 -2.31733,14.82134 -1.79067,7.93733 -4.8,17.40133 -9.82533,27.48 -5.452,10.93866 -13.28,22.59866 -24.51867,33.81866 -34.808,34.85334 -65.528,42.892 -65.528,42.892 0,0 -28.72266,-8.99333 -62.25866,-42.50666 -11.28267,-11.28134 -19.168,-22.88 -24.684,-33.69067 -4.55467,-8.924 -7.492,-17.308 -9.38267,-24.536 -1.38133,-5.27867 -2.20533,-9.93867 -2.69333,-13.73867 -0.86267,-6.71733 -0.68134,-10.75066 -0.68134,-10.75066 0,0 0.22934,-0.132 0.68134,-0.36667 2.19333,-1.13733 9.752,-4.77866 23.04533,-8.376 8.96933,-2.45466 20.54667,-4.908 34.83867,-6.59333 11.21866,-1.32133 24.11066,-2.17067 38.728,-2.17067 7.04266,0 13.75599,0.17334 20.13866,0.48267 50.38667,2.43733 79.88133,13.368 84.16533,15.05467 0.36267,0.14133 0.54934,0.22133 0.54934,0.22133 0,0 0.16,2.93733 -0.25734,7.95866"
     style="display:inline;fill:#ffffff;fill-opacity:1;fill-rule:nonzero;stroke:none;stroke-width:0.133333"
     id="path1-15"
     inkscape:label="bottom"
     sodipodi:nodetypes="ccccccccsccccscccc"
     sodipodi:insensitive="true" />
  <path
     id="path9"
     d="m 358.41555,222.1716 -10.95733,-11.84933 6.45066,-6.06133 -6.888,-7.35067 -4.09733,3.848 0.58533,5.94133 -14.58933,-15.57466 -5.51733,-0.17067 -12.16267,10.80667 -0.16,5.17733 11.72667,12.72533 -0.60267,0.56534 -2.224,2.08933 -14.19733,13.65333 -41.58533,-44.90933 -3.01867,-3.02533 -0.696,21.67866 c -0.10667,3.41467 0.516,5.54134 1.812,7.34667 0.15333,0.21467 0.31467,0.428 0.48667,0.63733 1.57066,1.88 3.24133,3.532 6.792,4.96267 6.33066,2.556 13.632,2.94933 13.70533,2.95333 l 3.28533,0.16 -2.88533,1.57867 c -0.024,0.0133 -0.18933,0.0973 -0.44,0.20533 -0.94267,0.40667 -3.43867,1.27867 -7.38667,1.156 -2.59333,-0.0813 -5.6,-0.52266 -8.94933,-1.31466 0.57067,0.62933 1.26133,1.33866 2.07067,2.13733 0.18133,0.176 0.35866,0.35067 0.55066,0.53733 3.432,3.31867 7.05067,4.532 11.772,5.41467 4.40134,0.82533 12.62534,1.972 12.69734,1.98133 l 2.84933,0.39867 -2.296,1.208 -0.248,0.132 c -0.11733,0.0627 -2.93867,1.52667 -7.94933,1.37067 -3.33867,-0.10267 -6.22667,-0.66 -8.252,-1.18 l 1.55066,1.68933 0.588,0.64267 c 1.74667,1.9 4.74,3.44933 9.15067,4.73733 1.276,0.372 2.58533,0.692 3.85867,0.972 4.56533,1.00133 8.63066,1.428 8.68133,1.43333 l 2.96133,0.30534 -1.74266,0.95333 -0.86934,0.476 c -0.324,0.176 -3.296,1.70533 -8.53333,1.38 -1.508,-0.0933 -3.06533,-0.31467 -4.644,-0.652 -0.016,-0.003 -0.0307,-0.004 -0.0467,-0.008 l 0.0253,0.028 -20.57467,19.328 6.89733,7.34133 21.06534,-19.78933 c 4.21866,2.32 11.128,4.508 16.788,4.684 l 9.09999,0.308 15.44534,16.028 8.092,0.008 -33.42133,-36.06667 14.63733,-13.752 c 0.97521,-0.91678 1.95034,-1.83365 2.92533,-2.75066 l 10.932,11.75333 5.51867,0.172 12.16133,-10.80933 0.16,-5.176 -0.388,-0.46534"
     style="display:inline;fill:#0b3720;fill-opacity:1;fill-rule:nonzero;stroke:none;stroke-width:0.133333"
     inkscape:label="Hammer and Feather"
     sodipodi:nodetypes="cccccccccccccccccccccccccccccccccccccccccccccccccccccccccccccc"
     sodipodi:insensitive="true" />
  <g
     inkscape:groupmode="layer"
     id="layer4"
     inkscape:label="original"
     style="display:none;opacity:0.5"
     transform="translate(70,0.999993)"
     sodipodi:insensitive="true">
    <path
       id="path9-3"
       d="M 288.40933,221.19333 277.452,209.344 l 6.45066,-6.06133 -6.888,-7.35067 -4.09733,3.848 0.58534,5.94133 -14.58934,-15.57466 -5.51733,-0.17067 -12.16267,10.80667 -0.16,5.17733 11.72667,12.72533 -0.60267,0.56534 -2.224,2.08933 -14.19733,13.65333 -41.58533,-44.90933 -3.01867,-3.02533 -0.696,21.67866 c -0.10667,3.41467 0.516,5.54134 1.812,7.34667 0.15333,0.21467 0.31467,0.428 0.48667,0.63733 1.57066,1.88 3.24133,3.532 6.792,4.96267 6.33066,2.556 13.632,2.94933 13.70533,2.95333 l 3.28533,0.16 -2.88533,1.57867 c -0.024,0.0133 -0.18933,0.0973 -0.44,0.20533 -0.94267,0.40667 -3.43867,1.27867 -7.38667,1.156 -2.59333,-0.0813 -5.6,-0.52266 -8.94933,-1.31466 0.57067,0.62933 1.26133,1.33866 2.07067,2.13733 0.18133,0.176 0.35866,0.35067 0.55066,0.53733 3.432,3.31867 7.05067,4.532 11.772,5.41467 4.40134,0.82533 12.62534,1.972 12.69734,1.98133 l 2.84933,0.39867 -2.296,1.208 -0.248,0.132 c -0.11733,0.0627 -2.93867,1.52667 -7.94933,1.37067 -3.33867,-0.10267 -6.22667,-0.66 -8.252,-1.18 l 1.55066,1.68933 0.588,0.64267 c 1.74667,1.9 4.74,3.44933 9.15067,4.73733 1.276,0.372 2.58533,0.692 3.85867,0.972 4.56533,1.00133 8.63066,1.428 8.68133,1.43333 l 2.96133,0.30534 -1.74266,0.95333 -0.86934,0.476 c -0.324,0.176 -3.296,1.70533 -8.53333,1.38 -1.508,-0.0933 -3.06533,-0.31467 -4.644,-0.652 -0.016,-0.003 -0.0307,-0.004 -0.0467,-0.008 l 0.0253,0.028 -20.57467,19.328 6.89733,7.34133 L 226.4586,257.26 c 4.21866,2.32 11.128,4.508 16.788,4.684 l 9.1,0.308 15.44533,16.028 8.092,0.008 -33.42133,-36.06667 14.63733,-13.752 2.05067,-1.928 0.49333,-0.464 0.38133,-0.35866 10.932,11.75333 5.51867,0.172 12.16133,-10.80933 0.16,-5.176 -0.388,-0.46534"
       style="fill:#0e3530;fill-opacity:1;fill-rule:nonzero;stroke:none;stroke-width:0.133333"
       inkscape:label="Hammer and Feather" />
    <path
       id="path10-0"
       d="m 237.37733,77.49067 c 0,-0.452 -0.11333,-0.785333 -0.35066,-1.021333 -0.34667,-0.342667 -0.984,-0.509334 -1.952,-0.509334 h -0.0707 l -1.55867,0.01467 v 3.297333 l 1.528,-0.01467 c 1.596,-0.01333 2.404,-0.608 2.404,-1.766667"
       style="fill:#0e3530;fill-opacity:1;fill-rule:nonzero;stroke:none;stroke-width:0.133333"
       inkscape:label="B hole" />
    <path
       id="path11-4"
       d="m 196.91333,79.160003 c 0,-0.594666 -0.14666,-1.022666 -0.44933,-1.308 -0.42133,-0.398666 -1.16667,-0.554666 -2.344,-0.486666 l -1.70533,0.09733 V 81.672 l 1.68,-0.09733 c 1.87066,-0.106667 2.81866,-0.918667 2.81866,-2.414667"
       style="fill:#0e3530;fill-opacity:1;fill-rule:nonzero;stroke:none;stroke-width:0.133333"
       inkscape:label="R hole" />
    <path
       id="path12-8"
       d="m 238.196,84.27867 c 0.001,-0.510667 -0.13467,-0.893334 -0.416,-1.172 -0.42667,-0.424 -1.20667,-0.630667 -2.38133,-0.630667 h -0.08 l -1.87334,0.01733 v 3.829334 l 1.87067,-0.01733 c 1.93867,-0.01467 2.88,-0.677333 2.88,-2.026666"
       style="fill:#0e3530;fill-opacity:1;fill-rule:nonzero;stroke:none;stroke-width:0.133333"
       inkscape:label="B hole 2" />
    <path
       id="path13-5"
       d="m 290.29866,87.625336 c 0.796,0.056 1.51467,-0.197333 2.08,-0.730666 0.88534,-0.837334 1.37334,-2.348 1.372,-4.256 0,-3.182667 -1.3,-5.158667 -3.47733,-5.282667 -0.0693,-0.0053 -0.13867,-0.0067 -0.20533,-0.0067 -0.75734,0 -1.40134,0.246666 -1.92134,0.737333 -0.864,0.816 -1.324,2.244 -1.32666,4.129333 0.003,3.213333 1.336,5.286667 3.47866,5.409333"
       style="fill:#0e3530;fill-opacity:1;fill-rule:nonzero;stroke:none;stroke-width:0.133333"
       inkscape:label="O hole" />
    <path
       id="path14-5"
       d="m 274.14667,85.66667 c 0.828,-0.8 1.248,-2.133334 1.24666,-3.958667 0.005,-3.409333 -1.428,-5.046666 -4.5,-5.153333 L 270.41467,76.54 v 10.09467 l 0.49333,0.016 c 1.436,0.052 2.50133,-0.272 3.23867,-0.984"
       style="fill:#0e3530;fill-opacity:1;fill-rule:nonzero;stroke:none;stroke-width:0.133333"
       inkscape:label="D hole" />
    <path
       id="path15"
       d="m 292.12666,55.553337 c -0.548,-0.03333 -1.09733,-0.06533 -1.64933,-0.09733 -12.02,-0.694667 -24.97866,-1.222667 -38.17466,-1.396 -0.33334,-0.004 -0.668,-0.008 -1.00267,-0.012 -0.33467,-0.0053 -0.66933,-0.008 -1.00267,-0.012 -2.36533,-0.024 -4.73466,-0.036 -7.11066,-0.036 -1.47467,0 -2.948,0.004 -4.424,0.01333 -0.32934,0.0027 -0.66,0.0053 -0.98934,0.0067 -0.33066,0.004 -0.65866,0.0067 -0.98933,0.0093 -11.40533,0.106667 -22.78133,0.484 -33.63733,1.013334 -0.33467,0.01733 -0.66667,0.03333 -0.99867,0.05067 -0.33333,0.016 -0.66667,0.03333 -1,0.04933 -4.068,0.206667 -8.05867,0.434667 -11.944,0.676 -0.34133,0.02267 -0.684,0.04267 -1.024,0.06533 -0.34267,0.02133 -0.68267,0.04267 -1.02267,0.064 C 154.01733,58.073337 129,61.17467 129,61.17467 v 29.7 l 0.34934,23.44533 0.016,1.11334 0.001,0.0933 0.0147,1.02 0.176,11.81867 0.0173,1.05466 0.0147,1.05467 0.86533,58.21466 c -0.17067,20.34 4.85867,38.69467 12.84266,54.968 22.972,46.832 70.40934,76.42933 88.80934,86.556 l 7.85733,4.04133 7.46933,-4.04133 c 19.14267,-10.21467 68.64533,-40.15467 92.436,-87.504 8.04,-16.00266 13.14533,-33.99333 13.14533,-53.884 l 1.07467,-73.30399 0.4,-27.281337 V 61.17467 c 0,0 -26.908,-3.512 -62.36267,-5.621333 m 38.03067,23.656 c 1.49867,-1.341334 3.56933,-1.944 5.82667,-1.686667 2.62,0.290667 4.36266,1.697333 5.36266,2.825333 l 0.13334,0.152 -2.268,2.505333 -0.16934,-0.173333 c -0.82666,-0.857333 -1.65066,-1.458666 -2.98533,-1.608 -1.06533,-0.116 -2.01067,0.150667 -2.71733,0.784 -0.90667,0.812 -1.38667,2.141333 -1.38534,3.845333 0,3.388 1.54,5.350667 4.45334,5.677334 0.58,0.06533 1.148,-0.01333 1.5,-0.198667 V 88.79867 c -0.848,-0.09733 -1.69334,-0.192 -2.54,-0.285334 l -0.20134,-0.02267 v -3.518667 l 0.252,0.02933 c 2.02134,0.224 4.04134,0.454667 6.06134,0.694667 l 0.20133,0.024 v 7.953333 l -0.0787,0.06667 c -1.10133,0.952 -2.80933,1.492 -4.62,1.492 -0.33466,0 -0.67333,-0.01867 -1.012,-0.056 -5.04933,-0.565333 -8.308,-4.332 -8.304,-9.596 0,-2.710667 0.86,-4.913333 2.49067,-6.370666 m -19.321,-3.814663 0.244,0.02 c 1.28,0.105333 2.56133,0.213333 3.84266,0.325333 l 0.12667,0.0093 0.0573,0.113333 c 1.44,2.876 2.88134,5.754667 4.32267,8.637333 l 1.18667,2.752 c 0,-0.0013 0,-0.0053 0,-0.0093 -0.168,-1.574667 -0.35867,-3.358667 -0.356,-4.914667 v -6.110666 l 0.248,0.02267 c 1.18933,0.110667 2.37866,0.225334 3.56933,0.341334 l 0.204,0.02 v 17.043996 l -0.2493,-0.02267 c -1.27867,-0.125334 -2.55734,-0.246667 -3.83734,-0.365334 l -0.124,-0.012 -0.056,-0.113333 c -1.44533,-2.9 -2.884,-5.784 -4.32266,-8.662667 l -1.19334,-2.74 c 0.008,0.064 0.0133,0.128 0.0213,0.190667 0.16,1.506667 0.34,3.213333 0.34,4.724 v 6.134667 l -0.24534,-0.02133 c -1.19066,-0.104 -2.38,-0.202666 -3.572,-0.301333 l -0.20666,-0.016 z m -9.352,-0.712 0.244,0.01733 c 1.25066,0.08933 2.50266,0.181334 3.74933,0.274667 l 0.21067,0.016 v 17.044 l -0.24267,-0.01867 C 304.196,91.92267 302.94666,91.83067 301.696,91.74267 L 301.484,91.728 Z m -16.576,0.757333 c 1.36133,-1.285333 3.21066,-1.893333 5.39066,-1.776 4.71067,0.270667 7.75334,3.889334 7.75067,9.22 -10e-4,2.862667 -0.83733,5.164 -2.41867,6.656 -1.248,1.177333 -2.90933,1.793333 -4.828,1.793333 -0.17466,0 -0.35066,-0.0053 -0.52933,-0.016 -4.71067,-0.269333 -7.75467,-3.917333 -7.75467,-9.297333 10e-4,-2.830666 0.82934,-5.106666 2.38934,-6.58 m -18.70267,-2.505333 0.23334,0.0067 c 1.56533,0.04533 3.132,0.09467 4.69866,0.148 5.51867,0.193333 8.55867,3.310666 8.55733,8.778666 0,2.76 -0.74666,4.88 -2.22,6.304 -1.36,1.310667 -3.26533,1.976 -5.67066,1.976 -0.15467,0 -0.31333,-0.004 -0.47333,-0.0093 -1.636,-0.056 -3.27067,-0.106667 -4.90534,-0.154667 l -0.22,-0.0067 z m -22.44933,-0.348 c 1.33867,0.004 2.67733,0.0093 4.01733,0.01867 h 0.15334 l 0.0573,0.142666 c 0.496,1.274667 0.99067,2.550667 1.484,3.825334 0.28267,0.792 0.55867,1.538666 0.844,2.308 l 0.35067,0.950666 c 0.17733,-0.469333 0.356,-0.922666 0.53066,-1.374666 0.24,-0.612 0.47734,-1.218667 0.70934,-1.850667 l 1.54266,-3.942667 0.156,0.0027 c 1.30934,0.01733 2.61734,0.03867 3.92534,0.06267 l 0.352,0.0053 -0.15067,0.318667 c -1.66,3.512 -3.32133,7.028 -4.98533,10.549333 v 6.096 l -0.228,-0.004 c -1.252,-0.016 -2.50134,-0.02933 -3.75467,-0.03867 l -0.22533,-0.0027 V 83.56267 c -1.66134,-3.557333 -3.32267,-7.106667 -4.98534,-10.652 l -0.15066,-0.324 z m -14.52133,0.09333 0.224,-0.0027 c 1.89733,-0.02933 3.79066,-0.05067 5.68933,-0.06533 2.51067,-0.01333 4.26133,0.466667 5.29467,1.496 0.70533,0.698667 1.06266,1.646667 1.06266,2.818667 0,1.512 -0.78666,2.948 -1.92,3.6 1.74667,0.613333 2.73734,2.044 2.73734,3.988 -10e-4,3.185333 -2.504,5.105333 -6.69734,5.136 -2.052,0.01467 -4.10666,0.03733 -6.16133,0.068 l -0.22933,0.004 z m -24.59734,0.724 0.216,-0.01067 c 1.284,-0.05467 2.56667,-0.109334 3.85067,-0.158667 l 0.14133,-0.0053 0.0667,0.125333 c 1.444,2.693333 2.88933,5.390667 4.33467,8.092 l 1.20266,2.629333 c -0.17066,-1.58 -0.36533,-3.370666 -0.36666,-4.954666 v -6.08 l 0.22133,-0.008 c 1.19333,-0.03867 2.384,-0.07467 3.57867,-0.109334 l 0.23333,-0.004 v 17.041333 l -0.22133,0.0067 c -1.28134,0.036 -2.564,0.07467 -3.84667,0.117333 l -0.14,0.004 -0.068,-0.124 c -1.444,-2.708 -2.888,-5.414666 -4.33333,-8.117333 l -1.208,-2.618666 c 0.009,0.09067 0.02,0.182666 0.028,0.276 0.16133,1.481333 0.34133,3.161333 0.34266,4.669333 v 6.104 l -0.21733,0.0093 c -1.19333,0.04667 -2.38533,0.096 -3.57867,0.148 l -0.236,0.0093 z m -16.428,0.882667 0.21334,-0.01333 c 1.99066,-0.126667 3.984,-0.246667 5.97866,-0.358667 2.38667,-0.133333 4.17334,0.333333 5.28667,1.388 0.904,0.853333 1.36,2.088 1.36,3.669333 -0.001,2.276 -1.028,4.017333 -2.86667,5.033333 1.212,2.076 2.42267,4.156 3.63467,6.238667 l 0.188,0.322667 -0.37333,0.01867 c -1.39734,0.06533 -2.79867,0.136 -4.19734,0.209334 l -0.14266,0.008 -0.0693,-0.125334 c -1.03333,-1.892 -2.06666,-3.784 -3.1,-5.672 -0.56933,0.032 -1.13866,0.06533 -1.70666,0.09733 v 5.970666 l -0.21334,0.01333 c -1.252,0.07333 -2.50133,0.149333 -3.75066,0.226666 l -0.24134,0.01733 z m -18.144,18.078666 C 171.79867,86.688 173.536,81.016 175.27067,75.350667 l 0.0453,-0.148 0.15467,-0.012 c 1.49466,-0.117333 2.992,-0.230667 4.488,-0.338667 l 0.17733,-0.01467 0.056,0.170666 5.296,16.5 -0.28933,0.01867 c -1.32134,0.088 -2.644,0.181333 -3.96667,0.274666 l -0.18933,0.01467 -1.02,-3.878667 c -1.568,0.114667 -3.13734,0.234667 -4.704,0.357334 -0.32934,1.292 -0.65734,2.584 -0.98534,3.877333 l -0.0387,0.157333 -0.16267,0.012 c -1.27733,0.104 -2.55467,0.208 -3.83067,0.317334 l -0.33466,0.028 z m -13.49466,-15.474666 0.20266,-0.02133 c 3.46267,-0.349334 6.956,-0.68 10.38134,-0.984 l 0.24666,-0.02133 v 3.601334 l -0.20666,0.01733 c -2.14267,0.190667 -4.28534,0.388 -6.42667,0.593333 v 2.876 c 1.79867,-0.173333 3.59867,-0.34 5.39867,-0.501333 l 0.24666,-0.02267 v 3.601333 l -0.20533,0.01867 c -1.81467,0.162667 -3.628,0.330667 -5.44,0.506667 v 3.365333 c 2.212,-0.212 4.42533,-0.417333 6.64,-0.613333 l 0.248,-0.02133 v 3.601334 l -0.208,0.01733 c -3.484,0.306667 -7.06,0.646667 -10.628,1.006667 l -0.24933,0.024 z m -14.49467,1.590667 0.2,-0.02267 c 1.24533,-0.148 2.49333,-0.292 3.73867,-0.434667 l 0.25466,-0.028 v 13.444 c 2.09067,-0.238667 4.18267,-0.468 6.27867,-0.689333 l 0.24933,-0.028 v 3.602666 l -0.20266,0.02267 c -3.432,0.362667 -6.88534,0.750666 -10.26534,1.150666 l -0.25333,0.02933 z M 341.83466,197.12533 c -0.32133,3.84267 -0.98266,8.90667 -2.31733,14.82134 -1.79067,7.93733 -4.8,17.40133 -9.82533,27.48 -5.452,10.93866 -13.28,22.59866 -24.51867,33.81866 -34.808,34.85333 -65.528,42.892 -65.528,42.892 0,0 -28.72266,-8.99333 -62.25866,-42.50666 -11.28267,-11.28134 -19.168,-22.88 -24.684,-33.69067 -4.55467,-8.924 -7.492,-17.308 -9.38267,-24.536 -1.38133,-5.27867 -2.20533,-9.93867 -2.69333,-13.73867 -0.86267,-6.71733 -0.68133,-10.75066 -0.68133,-10.75066 0,0 0.22933,-0.132 0.68133,-0.36667 2.19333,-1.13733 9.752,-4.77867 23.04533,-8.376 8.96933,-2.45467 20.54667,-4.908 34.83867,-6.59333 11.21866,-1.32134 24.11066,-2.17067 38.728,-2.17067 7.04266,0 13.756,0.17333 20.13866,0.48267 50.38667,2.43733 79.88133,13.368 84.16533,15.05466 0.36267,0.14134 0.54934,0.22134 0.54934,0.22134 0,0 0.16,2.93733 -0.25734,7.95866 M 279.32133,161.184 c 0.252,-0.0747 1.21333,-0.412 2.65467,-0.92667 7.88666,-2.824 30.14533,-10.96133 30.14533,-10.96133 l -0.004,0.001 c 0.001,0 0.005,-0.001 0.005,-0.001 L 292.353,162.16933 h -0.007 -10e-4 l -13.03333,-0.976 c 0.004,-0.003 0.0173,-0.007 0.024,-0.009 z m 63.11067,-1.60267 c 0,-0.003 -0.003,-0.004 -0.004,-0.005 -0.0533,-0.0307 -0.11867,-0.076 -0.176,-0.10933 -0.17867,-0.112 -0.36134,-0.22534 -0.56667,-0.36267 h -0.024 c -7.992,-5.49333 -23.59867,-20.36666 -24.45467,-20.36666 -0.15733,0 -55.42266,20.09466 -55.42266,20.09466 -0.068,0.0227 -0.83067,0.18667 -1.33467,0.196 l -2.70266,-0.62667 -10.26267,-2.37333 -1.46,-0.33867 -1.45867,-0.33733 -0.47066,-0.108 -1.29467,-0.29867 -1.292,-0.3 -3.77333,-0.87333 -1.04934,-0.24267 -1.8,-0.41466 -1.00266,-0.23334 -2.376,-0.54933 -0.95867,-0.22267 -1.58667,-0.36666 -0.96933,-0.22267 -0.59867,-0.13867 -1.708,0.89467 -0.90133,0.472 -1.37733,0.72267 -0.88267,0.46133 -1.812,0.95067 -0.88667,0.46533 -1.40666,0.736 -0.912,0.47867 -2.49734,1.30933 -1.068,0.56 -1.956,1.02533 c -0.19333,-0.001 -0.38133,-0.001 -0.56933,-0.001 -1.072,-0.005 -2.048,-0.009 -2.89467,-0.0147 -2.168,-0.0107 -3.50266,-0.0187 -3.50266,-0.0187 -2.46667,-0.0507 -5.01067,-0.0787 -7.6,-0.0867 -24.11467,-0.0787 -52.03467,1.52667 -56.792,1.83333 L 141.62534,134.89067 198.38,155.72 c 0.10267,-0.31067 0.21067,-0.62133 0.32267,-0.93067 0.11333,-0.308 0.232,-0.61333 0.35466,-0.91866 0.21067,-0.52267 0.43867,-1.04267 0.68,-1.556 0.13867,-0.296 0.28267,-0.592 0.43067,-0.884 0.14933,-0.29334 0.30133,-0.584 0.46,-0.87067 l -58.468,-29.72666 0.24933,-6.56267 c 6.93467,-0.728 16.27734,-1.66933 27.312,-2.58533 l 35.52134,32.54799 c 0.224,-0.23866 0.45333,-0.47466 0.68666,-0.704 0.23334,-0.232 0.47067,-0.46 0.70934,-0.684 0.41333,-0.38266 0.84,-0.756 1.276,-1.11866 0.252,-0.208 0.508,-0.41467 0.768,-0.616 0.25733,-0.2 0.52,-0.39867 0.78533,-0.59333 L 185.94267,110.46 c 5.556,-0.37466 11.38666,-0.72266 17.42533,-1.02133 l 12.95067,27.29733 c 0.30533,-0.12133 0.612,-0.23733 0.92,-0.34933 0.30933,-0.112 0.62,-0.216 0.932,-0.31733 0.54,-0.176 1.08133,-0.33334 1.62666,-0.47734 0.31734,-0.084 0.636,-0.164 0.95467,-0.23733 0.32,-0.0733 0.64133,-0.144 0.96267,-0.20667 L 215.632,108.91334 c 1.524,-0.056 3.05733,-0.10534 4.59867,-0.15334 3.85733,-0.116 7.74266,-0.208 11.64266,-0.26933 L 229.516,134.628 c 0.328,0.0187 0.65467,0.044 0.98133,0.0733 0.328,0.0307 0.65334,0.068 0.97867,0.10666 0.56133,0.0707 1.11867,0.156 1.672,0.256 0.32267,0.0587 0.64667,0.12 0.96667,0.188 0.32,0.0693 0.64,0.144 0.95866,0.22267 L 243.108,108.3973 h 0.0787 c 5.50533,0 10.99733,0.068 16.42666,0.192 l -17.25066,29.696 c 0.28933,0.15466 0.57466,0.31333 0.86,0.48 0.284,0.164 0.564,0.33466 0.84266,0.50933 0.476,0.29867 0.94534,0.60933 1.40667,0.93333 0.26933,0.19067 0.536,0.38267 0.79733,0.57867 0.24534,0.18533 0.484,0.37467 0.72534,0.56667 l -0.04,0.0707 0.052,-0.0613 c 0.0133,0.0107 0.0253,0.02 0.0387,0.0307 l 0.512,-0.68 26.84934,-31.65334 c 10.61999,0.432 20.79999,1.036 30.12533,1.70534 l -52.0774,36.2586 c 0.19466,0.26267 0.38666,0.52933 0.57333,0.8 0.188,0.268 0.372,0.54 0.55067,0.81733 0.14933,0.23067 0.29866,0.46534 0.44133,0.70267 0.15067,0.24533 0.296,0.49067 0.43867,0.73733 0.164,0.28534 0.32133,0.57334 0.47466,0.86134 0.15467,0.292 0.30534,0.584 0.44934,0.87733 l 73.28399,-39.04933 c 4.104,0.38933 7.82,0.76533 11.06934,1.10667 0.43866,0.0467 0.86933,0.092 1.292,0.13733 l 1.404,45.54266 v 0.024"
       style="display:inline;fill:#0e3530;fill-opacity:1;fill-rule:nonzero;stroke:none;stroke-width:0.133333"
       inkscape:label="shield" />
    <path
       id="path16-5"
       d="m 178.82533,83.39067 c -0.28933,-1.022667 -0.57733,-2.18 -0.856,-3.298667 -0.10266,-0.42 -0.20666,-0.838666 -0.31066,-1.248 -0.356,1.568 -0.74934,3.281333 -1.14667,4.756 -0.10667,0.418667 -0.21333,0.838667 -0.32,1.257333 0.98667,-0.07733 1.97333,-0.150666 2.96133,-0.224 l -0.328,-1.242666"
       style="fill:#0e3530;fill-opacity:1;fill-rule:nonzero;stroke:none;stroke-width:0.133333"
       inkscape:label="A hole" />
  </g>
  <g
     id="g3"
     inkscape:label="P"
     transform="matrix(0.38549824,-0.39826632,0.39747396,0.40578564,174.3367,244.66572)">
    <path
       d="m 383.1932,153.26973 0.21334,-0.0133 c 1.99066,-0.12667 3.984,-0.24667 5.97866,-0.35867 2.38667,-0.13333 4.17334,0.33333 5.28667,1.388 0.904,0.85333 1.36,2.088 1.36,3.66933 -6.4e-4,1.46586 -0.32565,2.58638 -1.04259,3.61559 -0.48414,0.69501 -1.49799,1.22546 -2.04624,1.50661 -1.24019,0.63601 -3.55313,0.89517 -3.8378,0.91117 -0.28466,0.016 -1.13866,0.0653 -1.70666,0.0973 v 5.97067 l -0.21334,0.0133 c -1.252,0.0733 -2.50133,0.14933 -3.75066,0.22667 l -0.24134,0.0173 z"
       style="display:inline;fill:#ffffff;fill-opacity:1;fill-rule:nonzero;stroke:none;stroke-width:0.133333"
       id="path1-7"
       inkscape:label="text"
       sodipodi:nodetypes="cccccaszcccccc" />
    <path
       id="path11-41"
       d="m 391.91648,158.14641 c 0,-0.59466 -0.14666,-1.02266 -0.44933,-1.308 -0.42133,-0.39866 -1.16667,-0.55466 -2.344,-0.48666 l -1.70533,0.0973 v 4.20933 l 1.68,-0.0973 c 1.87066,-0.10667 2.81866,-0.91867 2.81866,-2.41467"
       style="display:inline;fill:#0b3720;fill-opacity:1;fill-rule:nonzero;stroke:none;stroke-width:0.133333"
       inkscape:label="R hole" />
  </g>
</svg>
